<svg id="Layer_1" data-name="Layer 1" xmlns="http://www.w3.org/2000/svg" xmlns:xlink="http://www.w3.org/1999/xlink" viewBox="0 0 1280 231"><defs><style>.cls-1{fill:#fff;}.cls-2{mask:url(#mask);}.cls-3{fill:#22333b;}.cls-4{fill:#c336e5;}</style><mask id="mask" x="4" y="-14.19" width="164.92" height="242.85" maskUnits="userSpaceOnUse"><g id="mask-2"><polygon id="path-1" class="cls-1" points="4 228.66 4 -14.2 168.91 -14.2 168.91 228.66 4 228.66"/></g></mask></defs><title>bg-Artboard 1</title><g id="Page-1"><g id="Navigation---Desktop"><g id="Page-1-2" data-name="Page-1"><g id="Group-3"><g class="cls-2"><path id="Fill-1" class="cls-3" d="M154,141.6v-.66c0-42.88-33.18-71.67-67.65-71.67-36.11,0-65.06,26.51-65.06,71.35v.65c0,43.85,30.25,72,65.06,72,34.47,0,67.65-29.12,67.65-71.67M4,141.92v-.65C4,86.94,44.66,53.88,84.67,53.88c33.17,0,54.65,19,68.3,39.93V4.46h15.95V224.73H153V187.41c-14.31,21.94-35.45,41.25-68.3,41.25-40,0-80.67-32.4-80.67-86.74"/></g></g><path id="Fill-4" class="cls-3" d="M412.18,181.86V72.54H388.11V57.81h24.07V4.46h15.93V57.81h58.23V72.54H428.11V180.22c0,23.89,14,32.4,33.18,32.4,8.13,0,15-1.64,24.4-5.89v15.06a60.7,60.7,0,0,1-27,5.88c-25.69,0-46.51-14.06-46.51-45.81"/><path id="Fill-6" class="cls-3" d="M516.9,117.36v-.8c0-61.47,46.71-112.1,112.19-112.1,40.33,0,65.49,13.67,85.45,36.17L677.41,80.8c-13.58-14.46-27.15-23.7-48.71-23.7-30.35,0-51.91,26.91-51.91,58.66v.8c0,32.94,21.16,59.47,54.3,59.47,20.36,0,34.34-8.85,49.11-22.91l35.54,36.17C695,212.19,671,228.66,628.3,228.66c-64.29,0-111.4-49.83-111.4-111.3"/><path id="Fill-8" class="cls-3" d="M744.36,8.48H805V39c14-18.09,32.35-34.56,63.09-34.56,28,0,49.11,12.46,60.29,34.16,18.77-22.1,41.13-34.16,70.27-34.16,45.13,0,72.27,27.32,72.27,79.15V223.83h-60.68V103.7c0-28.92-12.78-43.79-35.54-43.79S938,74.78,938,103.7V223.83H877.32V103.7c0-28.92-12.78-43.79-35.54-43.79S805,74.78,805,103.7V223.83H744.36Z"/><path id="Fill-10" class="cls-3" d="M1100.31,195.31l26-40.18c23.15,16.88,47.51,25.72,67.48,25.72,17.56,0,25.55-6.42,25.55-16.08,0-14.05-20.76-18.48-44.32-25.71-30-8.83-63.89-22.9-63.89-64.68,0-44.61,35.14-69.11,78.26-69.11,27.15,0,56.7,9.24,79.86,24.9l-23.16,42.2c-21.16-12.46-42.32-20.09-57.9-20.09-14.76,0-22.35,6.43-22.35,14.87,0,12.85,20.37,18.48,43.52,26.51,29.94,10,64.68,24.51,64.68,63.88,0,48.62-35.53,70.32-81.85,70.32-30,0-63.48-10.05-91.84-32.55"/><path id="Fill-12" class="cls-4" d="M286,53.88c-49.45,0-85.55,40.59-85.55,87.39v.65c0,46.81,35.78,86.74,84.9,86.74,49.44,0,85.54-40.59,85.54-87.39v-.65c0-46.81-35.77-86.74-84.89-86.74"/></g></g></g></svg>